<?xml version="1.0" encoding="utf-8"?>
<!-- Generator: Adobe Illustrator 28.0.0, SVG Export Plug-In . SVG Version: 6.00 Build 0)  -->
<svg version="1.1" id="Layer_1" xmlns="http://www.w3.org/2000/svg" xmlns:xlink="http://www.w3.org/1999/xlink" x="0px" y="0px"
	 viewBox="0 0 641 641" style="enable-background:new 0 0 641 641;" xml:space="preserve">
<style type="text/css">
	.st0{fill:none;stroke:#231F20;stroke-width:3;stroke-linecap:square;stroke-miterlimit:10;}
	.st1{fill:none;stroke:#231F20;stroke-width:3;stroke-linecap:square;stroke-miterlimit:10;stroke-dasharray:8.6838,13.0257;}
	.st2{fill:none;stroke:#231F20;stroke-width:3;stroke-linecap:square;stroke-miterlimit:10;stroke-dasharray:7.9949,11.9924;}
</style>
<g>
	<g>
		<path class="st0" d="M221.47,143.5c0,0-0.08,1.46-0.25,3.99"/>
		<path class="st1" d="M220.21,160.48c-1.49,17.15-4.39,43.15-9.16,57.81"/>
		<path class="st0" d="M208.64,224.33c-0.7,1.37-1.43,2.5-2.2,3.33"/>
	</g>
</g>
<g>
	<g>
		<path class="st0" d="M216.33,193.91c-0.02,0.1-0.84,1.22-2.6,3.03"/>
		<path class="st2" d="M204.68,204.79c-12.16,9.11-34.57,21.46-70.7,26.88c-60.11,9.02-99.52,26.72-110.87,42.08
			c-7.06,9.55-14.27,22.97-18.72,31.76"/>
		<path class="st0" d="M1.72,310.88c-1.1,2.26-1.72,3.61-1.72,3.61"/>
	</g>
</g>
<g>
	<g>
		<g>
			<path class="st0" d="M419.53,143.5c0,0,0.08,1.46,0.25,3.99"/>
			<path class="st1" d="M420.79,160.48c1.49,17.15,4.39,43.15,9.16,57.81"/>
			<path class="st0" d="M432.36,224.33c0.7,1.37,1.43,2.5,2.2,3.33"/>
		</g>
	</g>
	<g>
		<g>
			<path class="st0" d="M424.67,193.91c0.02,0.1,0.84,1.22,2.6,3.03"/>
			<path class="st2" d="M436.32,204.79c12.16,9.11,34.57,21.46,70.7,26.88c60.11,9.02,99.52,26.72,110.87,42.08
				c7.06,9.55,14.27,22.97,18.72,31.76"/>
			<path class="st0" d="M639.28,310.88c1.1,2.26,1.72,3.61,1.72,3.61"/>
		</g>
	</g>
</g>
</svg>
